<?xml version="1.0" encoding="utf-8" standalone="no"?>
<!DOCTYPE svg PUBLIC "-//W3C//DTD SVG 1.1//EN"
  "http://www.w3.org/Graphics/SVG/1.1/DTD/svg11.dtd">
<svg xmlns:xlink="http://www.w3.org/1999/xlink" width="572.4pt" height="313.776pt" viewBox="0 0 572.4 313.776" xmlns="http://www.w3.org/2000/svg" version="1.1">
 <metadata>
  <rdf:RDF xmlns:dc="http://purl.org/dc/elements/1.1/" xmlns:cc="http://creativecommons.org/ns#" xmlns:rdf="http://www.w3.org/1999/02/22-rdf-syntax-ns#">
   <cc:Work>
    <dc:type rdf:resource="http://purl.org/dc/dcmitype/StillImage"/>
    <dc:date>2026-08-13T08:23:02.483827</dc:date>
    <dc:format>image/svg+xml</dc:format>
    <dc:creator>
     <cc:Agent>
      <dc:title>Matplotlib v3.10.9, https://matplotlib.org/</dc:title>
     </cc:Agent>
    </dc:creator>
   </cc:Work>
  </rdf:RDF>
 </metadata>
 <defs>
  <style type="text/css">*{stroke-linejoin: round; stroke-linecap: butt}</style>
 </defs>
 <g id="figure_1">
  <g id="patch_1">
   <path d="M 0 313.776 
L 572.4 313.776 
L 572.4 0 
L 0 0 
z
" style="fill: #ffffff"/>
  </g>
  <g id="axes_1">
   <g id="patch_2">
    <path d="M 40.68 126.9504 
L 152.28 126.9504 
Q 169.02 126.9504 169.02 117.96912 
L 169.02 64.08144 
Q 169.02 55.10016 152.28 55.10016 
L 40.68 55.10016 
Q 23.94 55.10016 23.94 64.08144 
L 23.94 117.96912 
Q 23.94 126.9504 40.68 126.9504 
z
" clip-path="url(#p665412b065)" style="fill: #eff6ff; stroke: #cbd5e1; stroke-width: 1.1; stroke-linejoin: miter"/>
   </g>
   <g id="patch_3">
    <path d="M 40.68 237.71952 
L 152.28 237.71952 
Q 169.02 237.71952 169.02 228.73824 
L 169.02 174.85056 
Q 169.02 165.86928 152.28 165.86928 
L 40.68 165.86928 
Q 23.94 165.86928 23.94 174.85056 
L 23.94 228.73824 
Q 23.94 237.71952 40.68 237.71952 
z
" clip-path="url(#p665412b065)" style="fill: #fff7ed; stroke: #cbd5e1; stroke-width: 1.1; stroke-linejoin: miter"/>
   </g>
   <g id="patch_4">
    <path d="M 224.82 126.9504 
L 336.42 126.9504 
Q 353.16 126.9504 353.16 117.96912 
L 353.16 64.08144 
Q 353.16 55.10016 336.42 55.10016 
L 224.82 55.10016 
Q 208.08 55.10016 208.08 64.08144 
L 208.08 117.96912 
Q 208.08 126.9504 224.82 126.9504 
z
" clip-path="url(#p665412b065)" style="fill: #ecfdf5; stroke: #cbd5e1; stroke-width: 1.1; stroke-linejoin: miter"/>
   </g>
   <g id="patch_5">
    <path d="M 224.82 237.71952 
L 336.42 237.71952 
Q 353.16 237.71952 353.16 228.73824 
L 353.16 174.85056 
Q 353.16 165.86928 336.42 165.86928 
L 224.82 165.86928 
Q 208.08 165.86928 208.08 174.85056 
L 208.08 228.73824 
Q 208.08 237.71952 224.82 237.71952 
z
" clip-path="url(#p665412b065)" style="fill: #fef2f2; stroke: #cbd5e1; stroke-width: 1.1; stroke-linejoin: miter"/>
   </g>
   <g id="patch_6">
    <path d="M 403.38 180.83808 
L 520.56 180.83808 
Q 537.3 180.83808 537.3 171.8568 
L 537.3 117.96912 
Q 537.3 108.98784 520.56 108.98784 
L 403.38 108.98784 
Q 386.64 108.98784 386.64 117.96912 
L 386.64 171.8568 
Q 386.64 180.83808 403.38 180.83808 
z
" clip-path="url(#p665412b065)" style="fill: #f5f3ff; stroke: #cbd5e1; stroke-width: 1.1; stroke-linejoin: miter"/>
   </g>
   <g id="patch_7">
    <path d="M 224.82 300.58848 
L 336.42 300.58848 
Q 353.16 300.58848 353.16 291.6072 
L 353.16 261.6696 
Q 353.16 252.68832 336.42 252.68832 
L 224.82 252.68832 
Q 208.08 252.68832 208.08 261.6696 
L 208.08 291.6072 
Q 208.08 300.58848 224.82 300.58848 
z
" clip-path="url(#p665412b065)" style="fill: #f8fafc; stroke: #cbd5e1; stroke-width: 1.1; stroke-linejoin: miter"/>
   </g>
   <g id="patch_8">
    <path d="M 403.38 300.58848 
L 520.56 300.58848 
Q 537.3 300.58848 537.3 291.6072 
L 537.3 261.6696 
Q 537.3 252.68832 520.56 252.68832 
L 403.38 252.68832 
Q 386.64 252.68832 386.64 261.6696 
L 386.64 291.6072 
Q 386.64 300.58848 403.38 300.58848 
z
" clip-path="url(#p665412b065)" style="fill: #f8fafc; stroke: #cbd5e1; stroke-width: 1.1; stroke-linejoin: miter"/>
   </g>
   <g id="patch_9">
    <path d="M 161.857343 91.02528 
Q 188.547073 91.02528 214.006966 91.02528 
" clip-path="url(#p665412b065)" style="fill: none; stroke: #64748b; stroke-width: 1.1; stroke-linecap: round"/>
    <path d="M 209.206966 88.62528 
L 214.006966 91.02528 
L 209.206966 93.42528 
z
" clip-path="url(#p665412b065)" style="fill: #64748b; stroke: #64748b; stroke-width: 1.1; stroke-linecap: round"/>
   </g>
   <g id="patch_10">
    <path d="M 161.857343 201.7944 
Q 188.547073 201.7944 214.006966 201.7944 
" clip-path="url(#p665412b065)" style="fill: none; stroke: #64748b; stroke-width: 1.1; stroke-linecap: round"/>
    <path d="M 209.206966 199.3944 
L 214.006966 201.7944 
L 209.206966 204.1944 
z
" clip-path="url(#p665412b065)" style="fill: #64748b; stroke: #64748b; stroke-width: 1.1; stroke-linecap: round"/>
   </g>
   <g id="patch_11">
    <path d="M 344.952795 93.718458 
Q 369.897489 116.46995 393.933528 138.392678 
" clip-path="url(#p665412b065)" style="fill: none; stroke: #64748b; stroke-width: 1.1; stroke-linecap: round"/>
    <path d="M 392.004404 133.384836 
L 393.933528 138.392678 
L 388.76978 136.931272 
z
" clip-path="url(#p665412b065)" style="fill: #64748b; stroke: #64748b; stroke-width: 1.1; stroke-linecap: round"/>
   </g>
   <g id="patch_12">
    <path d="M 344.728015 198.867152 
Q 369.9019 171.854761 394.237315 145.742075 
" clip-path="url(#p665412b065)" style="fill: none; stroke: #64748b; stroke-width: 1.1; stroke-linecap: round"/>
    <path d="M 389.209053 147.617329 
L 394.237315 145.742075 
L 392.72056 150.889838 
z
" clip-path="url(#p665412b065)" style="fill: #64748b; stroke: #64748b; stroke-width: 1.1; stroke-linecap: round"/>
   </g>
   <g id="patch_13">
    <path d="M 280.62 235.734765 
Q 280.62 245.2044 280.62 253.444196 
" clip-path="url(#p665412b065)" style="fill: none; stroke: #64748b; stroke-width: 1.1; stroke-linecap: round"/>
    <path d="M 283.02 248.644196 
L 280.62 253.444196 
L 278.22 248.644196 
z
" clip-path="url(#p665412b065)" style="fill: #64748b; stroke: #64748b; stroke-width: 1.1; stroke-linecap: round"/>
   </g>
   <g id="patch_14">
    <path d="M 346.00177 276.6384 
Q 369.901228 276.6384 392.570849 276.6384 
" clip-path="url(#p665412b065)" style="fill: none; stroke: #64748b; stroke-width: 1.1; stroke-linecap: round"/>
    <path d="M 387.770849 274.2384 
L 392.570849 276.6384 
L 387.770849 279.0384 
z
" clip-path="url(#p665412b065)" style="fill: #64748b; stroke: #64748b; stroke-width: 1.1; stroke-linecap: round"/>
   </g>
   <g id="text_1">
    <text style="font-size: 9px; font-family: 'Microsoft YaHei', 'SimHei', 'Noto Sans CJK SC', 'Arial Unicode MS', 'DejaVu Sans', sans-serif; fill: #1f2937" transform="translate(69.48 82.633202)">装备资源状态</text>
    <text style="font-size: 9px; font-family: 'Microsoft YaHei', 'SimHei', 'Noto Sans CJK SC', 'Arial Unicode MS', 'DejaVu Sans', sans-serif; fill: #1f2937" transform="translate(72.757969 93.503796)">6组 x 3字段</text>
    <text style="font-size: 9px; font-family: 'Microsoft YaHei', 'SimHei', 'Noto Sans CJK SC', 'Arial Unicode MS', 'DejaVu Sans', sans-serif; fill: #1f2937" transform="translate(60.357656 104.374389)">性能1/性能2/起效</text>
   </g>
   <g id="text_2">
    <text style="font-size: 9px; font-family: 'Microsoft YaHei', 'SimHei', 'Noto Sans CJK SC', 'Arial Unicode MS', 'DejaVu Sans', sans-serif; fill: #1f2937" transform="translate(64.98 193.402322)">无人机来袭态势</text>
    <text style="font-size: 9px; font-family: 'Microsoft YaHei', 'SimHei', 'Noto Sans CJK SC', 'Arial Unicode MS', 'DejaVu Sans', sans-serif; fill: #1f2937" transform="translate(72.757969 204.272916)">6组 x 4字段</text>
    <text style="font-size: 9px; font-family: 'Microsoft YaHei', 'SimHei', 'Noto Sans CJK SC', 'Arial Unicode MS', 'DejaVu Sans', sans-serif; fill: #1f2937" transform="translate(54.712969 215.143509)">距离/角度/速度/数量</text>
   </g>
   <g id="text_3">
    <text style="font-size: 9px; font-family: 'Microsoft YaHei', 'SimHei', 'Noto Sans CJK SC', 'Arial Unicode MS', 'DejaVu Sans', sans-serif; fill: #1f2937" transform="translate(253.62 82.633202)">资源能力视角</text>
    <text style="font-size: 9px; font-family: 'Microsoft YaHei', 'SimHei', 'Noto Sans CJK SC', 'Arial Unicode MS', 'DejaVu Sans', sans-serif; fill: #1f2937" transform="translate(251.697656 93.503796)">总能力/起效数</text>
    <text style="font-size: 9px; font-family: 'Microsoft YaHei', 'SimHei', 'Noto Sans CJK SC', 'Arial Unicode MS', 'DejaVu Sans', sans-serif; fill: #1f2937" transform="translate(242.697656 104.374389)">类型能力/能力均衡</text>
   </g>
   <g id="text_4">
    <text style="font-size: 9px; font-family: 'Microsoft YaHei', 'SimHei', 'Noto Sans CJK SC', 'Arial Unicode MS', 'DejaVu Sans', sans-serif; fill: #1f2937" transform="translate(253.62 193.402322)">态势威胁视角</text>
    <text style="font-size: 9px; font-family: 'Microsoft YaHei', 'SimHei', 'Noto Sans CJK SC', 'Arial Unicode MS', 'DejaVu Sans', sans-serif; fill: #1f2937" transform="translate(251.697656 204.272916)">目标数/总威胁</text>
    <text style="font-size: 9px; font-family: 'Microsoft YaHei', 'SimHei', 'Noto Sans CJK SC', 'Arial Unicode MS', 'DejaVu Sans', sans-serif; fill: #1f2937" transform="translate(247.197656 215.143509)">集中度/角度跨度</text>
   </g>
   <g id="text_5">
    <text style="font-size: 9px; font-family: 'Microsoft YaHei', 'SimHei', 'Noto Sans CJK SC', 'Arial Unicode MS', 'DejaVu Sans', sans-serif; fill: #1f2937" transform="translate(434.97 136.520882)">攻防匹配视角</text>
    <text style="font-size: 9px; font-family: 'Microsoft YaHei', 'SimHei', 'Noto Sans CJK SC', 'Arial Unicode MS', 'DejaVu Sans', sans-serif; fill: #1f2937" transform="translate(428.547656 147.391476)">压力/单目标能力</text>
    <text style="font-size: 9px; font-family: 'Microsoft YaHei', 'SimHei', 'Noto Sans CJK SC', 'Arial Unicode MS', 'DejaVu Sans', sans-serif; fill: #1f2937" transform="translate(419.547656 158.262069)">类型承压/高威胁匹配</text>
   </g>
   <g id="text_6">
    <text style="font-size: 9px; font-family: 'Microsoft YaHei', 'SimHei', 'Noto Sans CJK SC', 'Arial Unicode MS', 'DejaVu Sans', sans-serif; text-anchor: middle; fill: #1f2937" x="280.62" y="279.116916" transform="rotate(-0 280.62 279.116916)">核心25工程特征</text>
   </g>
   <g id="text_7">
    <text style="font-size: 9px; font-family: 'Microsoft YaHei', 'SimHei', 'Noto Sans CJK SC', 'Arial Unicode MS', 'DejaVu Sans', sans-serif; fill: #1f2937" transform="translate(443.97 273.681619)">最终输入</text>
    <text style="font-size: 9px; font-family: 'Microsoft YaHei', 'SimHei', 'Noto Sans CJK SC', 'Arial Unicode MS', 'DejaVu Sans', sans-serif; fill: #1f2937" transform="translate(412.54875 284.552212)">raw42 + core25 = 67维</text>
   </g>
   <g id="text_8">
    <text style="font-weight: 700; font-size: 13px; font-family: 'Microsoft YaHei', 'SimHei', 'Noto Sans CJK SC', 'Arial Unicode MS', 'DejaVu Sans', sans-serif; text-anchor: middle" x="286.2" y="28.15632" transform="rotate(-0 286.2 28.15632)">样本结构与双视角特征工程</text>
   </g>
   <g id="text_9">
    <text style="font-size: 8px; font-family: 'Microsoft YaHei', 'SimHei', 'Noto Sans CJK SC', 'Arial Unicode MS', 'DejaVu Sans', sans-serif; text-anchor: middle; fill: #6b7280" x="286.2" y="43.12512" transform="rotate(-0 286.2 43.12512)">从装备资源状态和来袭态势分别挖掘，再通过攻防压力特征连接两个视角</text>
   </g>
  </g>
 </g>
 <defs>
  <clipPath id="p665412b065">
   <rect x="7.2" y="7.2" width="558" height="299.376"/>
  </clipPath>
 </defs>
</svg>
